<svg width="557" height="126" viewBox="0 0 557 126" fill="none" xmlns="http://www.w3.org/2000/svg">
<g clip-path="url(#clip0_13_4646)">
<path d="M94.5 47.3C94.5037 54.859 92.6918 62.3083 89.2169 69.0213C85.742 75.7342 80.7056 81.5143 74.5315 85.8754C68.3574 90.2365 61.2261 93.0509 53.7378 94.0819C46.2494 95.1129 38.6229 94.3303 31.5 91.8V126H0V55.1H25C26.6955 59.8656 29.8774 63.9604 34.0765 66.7806C38.2756 69.6008 43.2697 70.9973 48.3226 70.7641C53.3755 70.5309 58.2198 68.6804 62.1413 65.4854C66.0628 62.2904 68.854 57.92 70.1034 53.0185C71.3528 48.117 70.9943 42.9437 69.0808 38.2613C67.1672 33.579 63.7999 29.6353 59.4752 27.0118C55.1505 24.3882 50.0973 23.2236 45.0605 23.6896C40.0237 24.1556 35.27 26.2275 31.5 29.6L29.7 31.4C27.6194 33.7294 26.0219 36.4486 25 39.4H0V-2.11969e-05H31.5V2.69998C37.3499 0.624548 43.5518 -0.276643 49.7504 0.048002C55.9491 0.372647 62.0229 1.91675 67.624 4.59191C73.2251 7.26707 78.2436 11.0207 82.392 15.638C86.5405 20.2553 89.7375 25.6455 91.8 31.5C92.6976 34.0694 93.3668 36.713 93.8 39.4C94.255 42.0089 94.4892 44.6516 94.5 47.3Z" fill="white"/>
<path d="M47.3 59.4C44.9112 59.3999 42.5758 58.6927 40.5881 57.3675C38.6005 56.0423 37.0497 54.1584 36.131 51.9532C35.2123 49.7481 34.9669 47.3203 35.4257 44.9759C35.8846 42.6315 37.0271 40.4754 38.7093 38.7792C40.3915 37.0831 42.5382 35.9229 44.8787 35.4448C47.2193 34.9667 49.649 35.1921 51.8616 36.0926C54.0743 36.9931 55.9709 38.5284 57.3124 40.505C58.6539 42.4817 59.3803 44.8112 59.4 47.2C59.4132 48.7973 59.11 50.3815 58.5078 51.8611C57.9057 53.3407 57.0165 54.6865 55.8916 55.8207C54.7667 56.9549 53.4283 57.8551 51.9537 58.4694C50.4791 59.0838 48.8975 59.4 47.3 59.4Z" fill="#006AFE"/>
<path d="M153.881 23.176C159.626 23.176 164.616 24.1436 168.85 26.079C173.083 27.9539 176.349 30.6755 178.647 34.2438C180.946 37.7516 182.095 41.8945 182.095 46.6724C182.095 51.4504 180.946 55.5932 178.647 59.1011C176.349 62.6089 173.083 65.3305 168.85 67.2659C164.616 69.1408 159.626 70.0782 153.881 70.0782H142.813V86.68H124.85V23.176H153.881ZM152.792 55.9259C156.481 55.9259 159.263 55.1396 161.138 53.5672C163.013 51.9342 163.951 49.636 163.951 46.6724C163.951 43.7089 163.013 41.4107 161.138 39.7777C159.263 38.1448 156.481 37.3283 152.792 37.3283H142.813V55.9259H152.792Z" fill="white"/>
<path d="M218.613 69.806H208.815V86.68H190.853V23.176H219.883C225.629 23.176 230.618 24.1436 234.852 26.079C239.085 27.9539 242.351 30.6755 244.65 34.2438C246.948 37.7516 248.097 41.8945 248.097 46.6724C248.097 51.2689 247.008 55.2908 244.831 58.7382C242.714 62.1251 239.66 64.7862 235.668 66.7216L249.367 86.68H230.134L218.613 69.806ZM229.953 46.6724C229.953 43.7089 229.016 41.4107 227.141 39.7777C225.266 38.1448 222.484 37.3283 218.794 37.3283H208.815V55.9259H218.794C222.484 55.9259 225.266 55.1396 227.141 53.5672C229.016 51.9342 229.953 49.636 229.953 46.6724Z" fill="white"/>
<path d="M290.031 87.9501C283.318 87.9501 277.27 86.5288 271.887 83.6862C266.565 80.8437 262.361 76.9124 259.277 71.8926C256.253 66.8728 254.741 61.2179 254.741 54.928C254.741 48.638 256.253 42.9832 259.277 37.9633C262.361 32.9435 266.565 29.0123 271.887 26.1697C277.27 23.3272 283.318 21.9059 290.031 21.9059C296.744 21.9059 302.762 23.3272 308.084 26.1697C313.467 29.0123 317.67 32.9435 320.694 37.9633C323.779 42.9832 325.321 48.638 325.321 54.928C325.321 61.2179 323.779 66.8728 320.694 71.8926C317.67 76.9124 313.467 80.8437 308.084 83.6862C302.762 86.5288 296.744 87.9501 290.031 87.9501ZM290.031 73.072C293.236 73.072 296.139 72.316 298.74 70.804C301.341 69.292 303.397 67.1752 304.909 64.4536C306.421 61.6715 307.177 58.4963 307.177 54.928C307.177 51.3596 306.421 48.2147 304.909 45.4931C303.397 42.711 301.341 40.564 298.74 39.052C296.139 37.54 293.236 36.784 290.031 36.784C286.825 36.784 283.922 37.54 281.322 39.052C278.721 40.564 276.665 42.711 275.153 45.4931C273.641 48.2147 272.885 51.3596 272.885 54.928C272.885 58.4963 273.641 61.6715 275.153 64.4536C276.665 67.1752 278.721 69.292 281.322 70.804C283.922 72.316 286.825 73.072 290.031 73.072Z" fill="white"/>
<path d="M377.277 53.5672H393.153V79.876C389.524 82.4766 385.351 84.4724 380.633 85.8635C375.916 87.2545 371.198 87.9501 366.481 87.9501C359.828 87.9501 353.841 86.559 348.518 83.7769C343.196 80.9344 339.023 77.0032 335.999 71.9833C332.975 66.9635 331.463 61.2784 331.463 54.928C331.463 48.5776 332.975 42.8924 335.999 37.8726C339.023 32.8528 343.226 28.9518 348.609 26.1697C353.992 23.3272 360.07 21.9059 366.844 21.9059C372.771 21.9059 378.093 22.9038 382.811 24.8996C387.528 26.8955 391.459 29.7683 394.604 33.518L383.173 43.8601C378.879 39.1427 373.739 36.784 367.751 36.784C362.308 36.784 357.923 38.4472 354.597 41.7736C351.27 45.0395 349.607 49.4243 349.607 54.928C349.607 58.4358 350.363 61.5808 351.875 64.3628C353.387 67.0844 355.504 69.2315 358.225 70.804C360.947 72.316 364.062 73.072 367.57 73.072C371.017 73.072 374.253 72.3764 377.277 70.9854V53.5672Z" fill="white"/>
<path d="M433.843 87.9501C424.408 87.9501 417.06 85.3797 411.798 80.2388C406.597 75.098 403.996 67.8102 403.996 58.3753V23.176H421.959V57.831C421.959 67.9916 425.981 73.072 434.025 73.072C442.008 73.072 446 67.9916 446 57.831V23.176H463.69V58.3753C463.69 67.8102 461.059 75.098 455.798 80.2388C450.596 85.3797 443.278 87.9501 433.843 87.9501Z" fill="white"/>
<path d="M526.843 72.7998V86.68H475.859V23.176H525.664V37.0561H493.64V47.7611H521.854V61.1876H493.64V72.7998H526.843Z" fill="white"/>
<path d="M543.791 87.4965C540.888 87.4965 538.439 86.5288 536.443 84.5934C534.447 82.6581 533.449 80.2086 533.449 77.2451C533.449 74.2211 534.417 71.7716 536.352 69.8968C538.348 68.0219 540.828 67.0844 543.791 67.0844C546.815 67.0844 549.295 68.0219 551.23 69.8968C553.166 71.7716 554.134 74.2211 554.134 77.2451C554.134 80.2086 553.136 82.6581 551.14 84.5934C549.204 86.5288 546.755 87.4965 543.791 87.4965Z" fill="#006AFE"/>
</g>
<defs>
<clipPath id="clip0_13_4646">
<rect width="557" height="126" fill="white"/>
</clipPath>
</defs>
</svg>
